<svg width="59" height="59" viewBox="0 0 59 59" style="border-radius: 50%" fill="none" xmlns="http://www.w3.org/2000/svg">
<rect width="59" height="59" fill="#FF0000"/>
<path d="M39.9977 27.568C39.6636 25.7358 38.8578 24.0652 37.7152 22.6883C35.7588 20.3306 32.8052 18.8298 29.5013 18.8298H21.239C19.905 18.846 18.8298 19.9318 18.8298 21.271V37.729C18.8298 39.0655 19.905 40.1514 21.239 40.1702H29.5013C32.8052 40.1702 35.7588 38.6694 37.7152 36.3117C38.8578 34.9348 39.6609 33.2642 39.9977 31.432C40.1136 30.8068 40.1702 30.1601 40.1702 29.5027C40.1702 28.8372 40.1109 28.1932 39.9977 27.568ZM29.531 36.309H29.469C28.798 36.3063 28.1512 36.2066 27.5395 36.0234C26.4373 35.692 25.4537 35.0911 24.6641 34.2962C24.1332 33.76 23.6913 33.1376 23.3598 32.4505C23.2035 32.1244 23.0715 31.7822 22.9664 31.4293C22.7858 30.8176 22.6888 30.1682 22.6888 29.5C22.6888 28.8318 22.7858 28.1824 22.9664 27.5707C23.0203 27.3902 23.0795 27.2151 23.1469 27.0399C23.2089 26.8756 23.4434 26.8836 23.4972 27.0507C23.5538 27.2258 23.6185 27.401 23.6886 27.568C23.9904 28.2902 24.4243 28.9422 24.9605 29.4973C25.5938 30.1548 26.3699 30.6748 27.2377 31.0089C27.3967 31.0709 27.5557 31.1248 27.7201 31.1733C28.2833 31.3376 28.8815 31.4266 29.4987 31.4266C30.8461 31.4266 31.9402 32.5178 31.9402 33.8678C31.9402 35.2069 30.8649 36.2928 29.531 36.309ZM36.0336 31.4293C35.9797 31.6098 35.9205 31.7849 35.8531 31.9601C35.7911 32.1244 35.5567 32.1164 35.5028 31.9493C35.4462 31.7742 35.3815 31.599 35.3114 31.432C35.0096 30.7098 34.5757 30.0578 34.0395 29.5027C32.8941 28.3144 31.2826 27.5734 29.5013 27.5734C28.9085 27.5734 28.3668 27.3633 27.9437 27.013C27.4048 26.5657 27.0598 25.8894 27.0598 25.1349C27.0598 24.4882 27.3131 23.8981 27.7228 23.4616C28.162 22.9955 28.7818 22.7018 29.469 22.6937H29.531C32.2204 22.7045 34.5434 24.2781 35.6402 26.5522C35.7965 26.8783 35.9285 27.2205 36.0336 27.5734C36.2142 28.1851 36.3112 28.8345 36.3112 29.5027C36.3112 30.1709 36.2142 30.8176 36.0336 31.4293Z" fill="white"/>
</svg>
