<svg width="28" height="28" viewBox="0 0 28 28" fill="none" xmlns="http://www.w3.org/2000/svg">
<path d="M14 21V5.83334" stroke="#364153" stroke-width="1.75" stroke-linecap="round" stroke-linejoin="round"/>
<path d="M17.5 15.1667C16.4906 14.8716 15.604 14.2574 14.973 13.4161C14.342 12.5748 14.0006 11.5516 14 10.5C13.9994 11.5516 13.658 12.5748 13.027 13.4161C12.396 14.2574 11.5094 14.8716 10.5 15.1667" stroke="#364153" stroke-width="1.75" stroke-linecap="round" stroke-linejoin="round"/>
<path d="M20.531 7.58334C20.7995 7.11841 20.9574 6.59796 20.9925 6.06224C21.0276 5.52652 20.9391 4.9899 20.7336 4.49389C20.5282 3.99788 20.2114 3.55578 19.8077 3.20179C19.4041 2.8478 18.9245 2.59141 18.4059 2.45245C17.8873 2.3135 17.3437 2.29571 16.8172 2.40045C16.2906 2.50519 15.7952 2.72966 15.3693 3.0565C14.9434 3.38333 14.5983 3.80377 14.3609 4.28528C14.1235 4.76679 14 5.29647 14 5.83334C14 5.29647 13.8765 4.76679 13.6391 4.28528C13.4017 3.80377 13.0566 3.38333 12.6307 3.0565C12.2048 2.72966 11.7094 2.50519 11.1828 2.40045C10.6563 2.29571 10.1127 2.3135 9.59412 2.45245C9.07554 2.59141 8.59589 2.8478 8.19225 3.20179C7.78861 3.55578 7.47182 3.99788 7.26639 4.49389C7.06095 4.9899 6.97237 5.52652 7.0075 6.06224C7.04264 6.59796 7.20054 7.11841 7.469 7.58334" stroke="#364153" stroke-width="1.75" stroke-linecap="round" stroke-linejoin="round"/>
<path d="M20.9961 5.97916C21.6819 6.15548 22.3185 6.48555 22.8578 6.94435C23.3971 7.40316 23.825 7.97868 24.1089 8.62731C24.3929 9.27595 24.5255 9.9807 24.4968 10.6882C24.4681 11.3957 24.2787 12.0874 23.9431 12.7108" stroke="#364153" stroke-width="1.75" stroke-linecap="round" stroke-linejoin="round"/>
<path d="M21 21C22.0273 20.9999 23.0258 20.661 23.8408 20.0356C24.6557 19.4102 25.2416 18.5334 25.5074 17.5412C25.7733 16.5489 25.7044 15.4967 25.3113 14.5476C24.9182 13.5985 24.2229 12.8057 23.3333 12.292" stroke="#364153" stroke-width="1.75" stroke-linecap="round" stroke-linejoin="round"/>
<path d="M23.2942 20.3968C23.3759 21.0294 23.3271 21.6721 23.1508 22.2851C22.9745 22.8981 22.6743 23.4685 22.2689 23.9609C21.8635 24.4534 21.3615 24.8575 20.7938 25.1484C20.226 25.4392 19.6047 25.6106 18.9682 25.6519C18.3317 25.6932 17.6934 25.6036 17.0929 25.3885C16.4924 25.1735 15.9423 24.8377 15.4766 24.4017C15.011 23.9658 14.6396 23.439 14.3856 22.8539C14.1315 22.2688 14 21.6379 13.9993 21C13.9987 21.6379 13.8672 22.2688 13.6131 22.8539C13.3591 23.439 12.9877 23.9658 12.5221 24.4017C12.0564 24.8377 11.5063 25.1735 10.9058 25.3885C10.3053 25.6036 9.66702 25.6932 9.03049 25.6519C8.39395 25.6106 7.77265 25.4392 7.20494 25.1484C6.63723 24.8575 6.13517 24.4534 5.72976 23.9609C5.32436 23.4685 5.02422 22.8981 4.84788 22.2851C4.67154 21.6721 4.62275 21.0294 4.70451 20.3968" stroke="#364153" stroke-width="1.75" stroke-linecap="round" stroke-linejoin="round"/>
<path d="M7.00045 21C5.97319 20.9999 4.97465 20.661 4.15969 20.0356C3.34473 19.4102 2.75888 18.5334 2.493 17.5412C2.22713 16.5489 2.29608 15.4967 2.68917 14.5476C3.08225 13.5985 3.77751 12.8057 4.66711 12.292" stroke="#364153" stroke-width="1.75" stroke-linecap="round" stroke-linejoin="round"/>
<path d="M7.0026 5.97916C6.31684 6.15548 5.68019 6.48555 5.14087 6.94435C4.60156 7.40316 4.17372 7.97868 3.88976 8.62731C3.60579 9.27595 3.47316 9.9807 3.50189 10.6882C3.53063 11.3957 3.71998 12.0874 4.0556 12.7108" stroke="#364153" stroke-width="1.75" stroke-linecap="round" stroke-linejoin="round"/>
</svg>
