<svg width="28" height="28" viewBox="0 0 28 28" fill="none" xmlns="http://www.w3.org/2000/svg">
<path d="M13.9999 11.6667C13.3811 11.6667 12.7876 11.9125 12.35 12.3501C11.9124 12.7877 11.6666 13.3812 11.6666 14C11.6666 15.19 11.5499 16.9283 11.3633 18.6667" stroke="#364153" stroke-width="1.75" stroke-linecap="round" stroke-linejoin="round"/>
<path d="M16.3327 15.3067C16.3327 18.0833 16.3327 22.75 15.166 25.6667" stroke="#364153" stroke-width="1.75" stroke-linecap="round" stroke-linejoin="round"/>
<path d="M20.1719 24.5233C20.3119 23.8233 20.6735 21.84 20.7552 21" stroke="#364153" stroke-width="1.75" stroke-linecap="round" stroke-linejoin="round"/>
<path d="M2.33398 14C2.33398 11.5514 3.10442 9.16481 4.53616 7.17837C5.9679 5.19194 7.98835 3.70635 10.3113 2.93202C12.6343 2.1577 15.142 2.1339 17.4793 2.864C19.8165 3.59411 21.8648 5.04109 23.334 6.99999" stroke="#364153" stroke-width="1.75" stroke-linecap="round" stroke-linejoin="round"/>
<path d="M2.33398 18.6667H2.34565" stroke="#364153" stroke-width="1.75" stroke-linecap="round" stroke-linejoin="round"/>
<path d="M25.4336 18.6667C25.6669 16.3333 25.5864 12.4203 25.4336 11.6667" stroke="#364153" stroke-width="1.75" stroke-linecap="round" stroke-linejoin="round"/>
<path d="M5.83398 22.75C6.41732 21 7.00065 17.5 7.00065 14C6.99947 13.2054 7.13361 12.4163 7.39732 11.6667" stroke="#364153" stroke-width="1.75" stroke-linecap="round" stroke-linejoin="round"/>
<path d="M10.0918 25.6667C10.3368 24.8967 10.6168 24.1267 10.7568 23.3333" stroke="#364153" stroke-width="1.75" stroke-linecap="round" stroke-linejoin="round"/>
<path d="M10.5 7.93334C11.5645 7.31877 12.772 6.99532 14.0011 6.99551C15.2303 6.99571 16.4377 7.31955 17.5019 7.93446C18.5662 8.54937 19.4498 9.43367 20.0639 10.4984C20.6779 11.5632 21.0008 12.7709 21 14V16.3333" stroke="#364153" stroke-width="1.75" stroke-linecap="round" stroke-linejoin="round"/>
</svg>
