<svg width="28" height="28" viewBox="0 0 28 28" fill="none" xmlns="http://www.w3.org/2000/svg">
<path d="M24.5 8.75001V7.00001C24.5 6.38118 24.2542 5.78768 23.8166 5.3501C23.3789 4.91251 22.7855 4.66668 22.1667 4.66668H5.83333C5.2145 4.66668 4.621 4.91251 4.18342 5.3501C3.74583 5.78768 3.5 6.38118 3.5 7.00001V23.3333C3.5 23.9521 3.74583 24.5456 4.18342 24.9832C4.621 25.4209 5.2145 25.6667 5.83333 25.6667H9.91667M18.6667 2.33334V7.00001M9.33333 2.33334V7.00001M3.5 11.6667H9.33333M20.4167 20.4167L18.6667 19.0167V16.3333M25.6667 18.6667C25.6667 22.5327 22.5326 25.6667 18.6667 25.6667C14.8007 25.6667 11.6667 22.5327 11.6667 18.6667C11.6667 14.8007 14.8007 11.6667 18.6667 11.6667C22.5326 11.6667 25.6667 14.8007 25.6667 18.6667Z" stroke="#364153" stroke-width="1.75" stroke-linecap="round" stroke-linejoin="round"/>
</svg>
