<svg width="28" height="28" viewBox="0 0 28 28" fill="none" xmlns="http://www.w3.org/2000/svg">
<path d="M13.6851 0.339758L6.13772 13.0093C6.07853 13.1087 5.94102 13.1197 5.86759 13.0309C5.20315 12.2259 2.72777 8.80177 5.7908 5.68084C8.58584 2.833 12.1459 0.802536 13.4653 0.100768C13.615 0.0211494 13.7727 0.192691 13.6851 0.339758Z" fill="#364153"/>
<path d="M13.2685 27.9254C13.4191 28.033 13.6047 27.8495 13.5038 27.6929C11.818 25.077 6.2141 16.3734 5.44 15.0668C4.67646 13.7781 3.17471 11.6364 3.04943 9.80405C3.03693 9.62112 2.789 9.58398 2.72663 9.75601C2.62604 10.0334 2.51895 10.3646 2.41915 10.7428C1.15918 15.5178 2.98903 20.5849 6.96309 23.4227L13.2685 27.9254Z" fill="#364153"/>
<path d="M14.3044 27.7001L21.8518 15.0306C21.911 14.9312 22.0486 14.9202 22.122 15.0091C22.7864 15.8139 25.2618 19.2382 22.1987 22.3591C19.4037 25.2069 15.8436 27.2374 14.5242 27.9391C14.3745 28.0188 14.2168 27.8472 14.3044 27.7001Z" fill="#364153"/>
<path d="M14.7308 0.112775C14.5802 0.00521579 14.3946 0.188646 14.4956 0.345291C16.1814 2.96118 21.7853 11.6649 22.5593 12.9713C23.3229 14.2601 24.8246 16.4018 24.95 18.2341C24.9624 18.417 25.2104 18.4541 25.2728 18.2821C25.3733 18.0047 25.4804 17.6737 25.5802 17.2953C26.8401 12.5203 25.0103 7.45335 21.0363 4.61547L14.7308 0.112775Z" fill="#364153"/>
</svg>
