<svg width="28" height="28" viewBox="0 0 28 28" fill="none" xmlns="http://www.w3.org/2000/svg">
<path d="M14.0007 22.1667L9.36898 24.9434C9.00608 25.1614 8.59069 25.2766 8.16732 25.2766C7.74395 25.2766 7.32855 25.1614 6.96565 24.9434L3.46565 22.8434C3.1212 22.6364 2.83604 22.344 2.63777 21.9945C2.43951 21.645 2.33486 21.2502 2.33398 20.8484V17.0684C2.33486 16.6666 2.43951 16.2718 2.63777 15.9222C2.83604 15.5727 3.1212 15.2803 3.46565 15.0734L8.16732 12.25M14.0007 22.1667V15.75M14.0007 22.1667L18.6323 24.9434C18.9953 25.1614 19.4106 25.2766 19.834 25.2766C20.2574 25.2766 20.6727 25.1614 21.0357 24.9434L24.5357 22.8434C24.8801 22.6364 25.1653 22.344 25.3635 21.9945C25.5618 21.645 25.6664 21.2502 25.6673 20.8484V17.0684C25.6664 16.6666 25.5618 16.2718 25.3635 15.9222C25.1653 15.5727 24.8801 15.2803 24.5357 15.0734L19.834 12.25M8.16732 12.25L14.0007 15.75M8.16732 12.25V7.1518C8.16819 6.74996 8.27284 6.35517 8.47111 6.00565C8.66937 5.65613 8.95454 5.36374 9.29898 5.1568L12.799 3.0568C13.1619 2.83877 13.5773 2.72357 14.0007 2.72357C14.424 2.72357 14.8394 2.83877 15.2023 3.0568L18.7023 5.1568C19.0467 5.36374 19.332 5.65613 19.5302 6.00565C19.7285 6.35517 19.8331 6.74996 19.834 7.1518V12.25M14.0007 15.75L8.16733 19.2499M14.0007 15.75L19.834 12.25M14.0007 15.75L19.834 19.25M14.0007 15.75L14.0004 9.33324M8.16733 19.2499L2.63733 15.9249M8.16733 19.2499L8.16732 25.2817M19.834 19.25L25.364 15.9249M19.834 19.25V25.2817M14.0004 9.33324L8.47038 6.00824M14.0004 9.33324L19.5307 6.00824" stroke="#364153" stroke-width="1.75" stroke-linecap="round" stroke-linejoin="round"/>
</svg>
