<svg width="28" height="28" viewBox="0 0 28 28" fill="none" xmlns="http://www.w3.org/2000/svg">
<path d="M14.4776 15.1865C15.0093 13.9538 15.9501 12.9423 17.1409 12.3226C18.3319 11.7028 19.7001 11.5128 21.0149 11.7846C22.3296 12.0564 23.5102 12.7735 24.3577 13.8146C25.2053 14.8559 25.6678 16.1575 25.6671 17.5C25.6671 22.0103 21.0004 25.6667 15.1671 25.6667C10.4106 25.6667 5.65524 24.71 3.06757 22.7943C2.57057 22.4257 2.33141 21.8237 2.34424 21.2053C2.47141 14.8435 3.06524 2.33333 11.6671 2.33333C12.5954 2.33333 13.4855 2.70208 14.1419 3.35845C14.7983 4.01483 15.1671 4.90507 15.1671 5.83333C15.1671 6.45216 14.9212 7.04566 14.4836 7.48324C14.046 7.92083 13.4525 8.16666 12.8337 8.16666C11.5446 8.16666 10.9204 7.64866 10.5004 6.99999M17.5005 16.3334C16.7963 15.8051 15.9819 15.4429 15.1178 15.2741C14.2539 15.1053 13.3629 15.1342 12.5117 15.3587C11.6605 15.5832 10.8712 15.9973 10.2028 16.5703C9.53446 17.1431 9.00444 17.8599 8.65246 18.6668M11.6251 7.96244C9.35594 9.30644 11.0838 15.1667 9.33378 17.5" stroke="#364153" stroke-width="1.75" stroke-linecap="round" stroke-linejoin="round"/>
</svg>
